<?xml version="1.0" encoding="UTF-8" standalone="no"?>
<!DOCTYPE svg PUBLIC "-//W3C//DTD SVG 1.1//EN" "http://www.w3.org/Graphics/SVG/1.1/DTD/svg11.dtd">
<svg width="100%" height="100%" viewBox="0 0 200 200" version="1.1" xmlns="http://www.w3.org/2000/svg" xmlns:xlink="http://www.w3.org/1999/xlink" xml:space="preserve" xmlns:serif="http://www.serif.com/" style="fill-rule:evenodd;clip-rule:evenodd;stroke-linejoin:round;stroke-miterlimit:2;">
    <g transform="matrix(1.456094,0,0,1.456094,-51.612049,-61.972034)">
        <g transform="matrix(0.733068,0,0,0.81983,35.94712,41.551771)">
            <path d="M182,11.479L182,158.521C182,162.097 178.753,165 174.754,165L11.246,165C7.247,165 4,162.097 4,158.521L4,11.479C4,7.903 7.247,5 11.246,5L174.754,5C178.753,5 182,7.903 182,11.479Z" style="fill:white;"/>
        </g>
        <g transform="matrix(0.815662,0,0,1,29.133753,15)">
            <path d="M69.772,35C71.689,35 73.527,35.621 74.883,36.727C76.238,37.832 77,39.332 77,40.896L77,53.164C77,56.387 73.796,59 69.845,59L21.626,59C20.399,59 19.223,58.602 18.355,57.895C17.487,57.187 17,56.227 17,55.226L17,38.774C17,37.773 17.487,36.813 18.355,36.105C19.223,35.398 20.399,35 21.626,35L69.772,35Z" style="fill:rgb(16,16,16);"/>
        </g>
        <g transform="matrix(1.266667,0,0,1,65.40636,24.747075)">
            <path d="M27.385,54.154C26.835,53.458 26.671,52.411 26.968,51.502C27.266,50.593 27.966,50 28.743,50L77.018,50C77.717,50 78.339,50.56 78.568,51.396C78.797,52.231 78.584,53.159 78.036,53.708C71.409,60.348 57.683,74.101 52.052,79.743C50.631,81.167 48.593,81.017 47.311,79.394C42.802,73.683 32.637,60.807 27.385,54.154ZM44.576,84.93C45.382,85.951 45.755,87.398 45.579,88.825C44.575,96.986 41.154,124.774 40.165,132.808C39.994,134.191 39.329,135.396 38.361,136.072C35.133,138.328 27.506,143.658 22.296,147.299C21.19,148.072 19.843,148.047 18.756,147.233C17.668,146.42 17,144.939 17,143.338L17,57.319C17,56.093 17.583,54.988 18.478,54.518C19.372,54.049 20.401,54.308 21.086,55.176C27.719,63.577 40.499,79.766 44.576,84.93Z" style="fill:rgb(16,16,16);"/>
        </g>
        <g transform="matrix(1,0,0,1,-5.686769,-3)">
            <circle cx="89" cy="65" r="12" style="fill:rgb(255,190,120);"/>
        </g>
        <g transform="matrix(1,0,0,1,-4.686769,-3)">
            <circle cx="89" cy="65" r="12" style="fill:rgb(255,173,85);"/>
        </g>
        <g transform="matrix(1,0,0,1,-3.686769,-3)">
            <circle cx="89" cy="65" r="12" style="fill:rgb(255,138,44);"/>
        </g>
        <g transform="matrix(1,0,0,1,-2.686769,-3)">
            <circle cx="89" cy="65" r="12" style="fill:rgb(255,98,0);"/>
        </g>
    </g>
</svg>
